<svg width="48" height="48" viewBox="0 0 48 48" fill="none" xmlns="http://www.w3.org/2000/svg">
<path d="M41 19C41 9.04444 41 5.66667 41 5.22222L38.7273 3L36.5 3.5L35 6" stroke="#FF4988" stroke-width="2" stroke-linecap="round"/>
<path d="M12 42C12 45.04 12 44.9333 12 45" stroke="#152C5B" stroke-width="3" stroke-linecap="round"/>
<path d="M4.5 28C4.5 26.6193 5.61929 25.5 7 25.5H40C41.3807 25.5 42.5 26.6193 42.5 28V35C42.5 38.0376 40.0376 40.5 37 40.5H10C6.96243 40.5 4.5 38.0376 4.5 35V28Z" stroke="#152C5B" stroke-width="3"/>
<path d="M2.5 22C2.5 20.6193 3.61929 19.5 5 19.5H43C44.3807 19.5 45.5 20.6193 45.5 22V23C45.5 24.3807 44.3807 25.5 43 25.5H5C3.61929 25.5 2.5 24.3807 2.5 23V22Z" stroke="#152C5B" stroke-width="3"/>
<path d="M31.6282 7.27021C32.2064 6.01641 33.6916 5.46875 34.9454 6.04698C36.1992 6.62521 36.7468 8.11037 36.1686 9.36417L35.5404 10.7263L31 8.63233L31.6282 7.27021Z" fill="#152C5B"/>
<path d="M36 42C36 45.04 36 44.9333 36 45" stroke="#152C5B" stroke-width="3" stroke-linecap="round"/>
</svg>
