<svg width="48" height="48" viewBox="0 0 48 48" fill="none" xmlns="http://www.w3.org/2000/svg">
<path d="M37.5 41C37.5 41.0776 37.4601 41.3543 36.9321 41.8001C36.411 42.2402 35.568 42.704 34.395 43.1229C32.0621 43.9561 28.7406 44.5 25 44.5C21.2594 44.5 17.9379 43.9561 15.605 43.1229C14.432 42.704 13.589 42.2402 13.0679 41.8001C12.5399 41.3543 12.5 41.0776 12.5 41C12.5 40.9224 12.5399 40.6457 13.0679 40.1999C13.589 39.7598 14.432 39.296 15.605 38.8771C17.9379 38.0439 21.2594 37.5 25 37.5C28.7406 37.5 32.0621 38.0439 34.395 38.8771C35.568 39.296 36.411 39.7598 36.9321 40.1999C37.4601 40.6457 37.5 40.9224 37.5 41Z" stroke="#152C5B" stroke-width="3"/>
<path d="M36.5 11.6667C36.5 12.9724 36.1655 15.4133 35.5126 18.4166C34.8666 21.3883 33.9315 24.8082 32.7795 28.0386C31.6219 31.285 30.2717 34.2641 28.8194 36.4023C27.2939 38.6481 25.9771 39.5 25 39.5C24.0229 39.5 22.7061 38.6481 21.1806 36.4023C19.7283 34.2641 18.3781 31.285 17.2205 28.0386C16.0685 24.8082 15.1334 21.3883 14.4874 18.4166C13.8345 15.4133 13.5 12.9724 13.5 11.6667C13.5 6.86792 18.3576 2.5 25 2.5C31.6424 2.5 36.5 6.86792 36.5 11.6667Z" fill="white" stroke="#152C5B" stroke-width="3"/>
<path d="M28.5 13.5C28.5 15.7091 26.7091 17.5 24.5 17.5C22.2909 17.5 20.5 15.7091 20.5 13.5C20.5 11.2909 22.2909 9.5 24.5 9.5C26.7091 9.5 28.5 11.2909 28.5 13.5Z" stroke="#FF4988" stroke-width="3"/>
</svg>
