<svg width="48" height="48" viewBox="0 0 48 48" fill="none" xmlns="http://www.w3.org/2000/svg">
<g clip-path="url(#clip0)">
<rect width="48" height="48" fill="white"/>
<path d="M21.6175 5.2472C22.2511 3.48104 24.7489 3.48104 25.3825 5.2472L28.9744 15.259C29.2595 16.0536 30.0127 16.5836 30.8569 16.5836H42.025C44.01 16.5836 44.7826 19.1632 43.1244 20.2543L34.4412 25.9678C33.6699 26.4754 33.3463 27.4449 33.6581 28.314L37.053 37.7769C37.7018 39.5852 35.6761 41.179 34.0712 40.123L24.5994 33.8906C23.9322 33.4516 23.0678 33.4516 22.4006 33.8906L12.9288 40.123C11.3239 41.179 9.2982 39.5852 9.94695 37.7769L13.3419 28.314C13.6537 27.4449 13.3301 26.4754 12.5588 25.9678L3.87565 20.2543C2.21738 19.1632 2.98995 16.5836 4.975 16.5836H16.1431C16.9873 16.5836 17.7405 16.0536 18.0256 15.259L21.6175 5.2472Z" fill="#FFCB11"/>
</g>
<defs>
<clipPath id="clip0">
<rect width="48" height="48" fill="white"/>
</clipPath>
</defs>
</svg>
