<svg width="48" height="48" viewBox="0 0 48 48" fill="none" xmlns="http://www.w3.org/2000/svg">
<mask id="path-1-inside-1" fill="white">
<path fill-rule="evenodd" clip-rule="evenodd" d="M18.3541 10C17.5363 10 16.8008 10.4979 16.4971 11.2572L15.4 14H8C3.58172 14 0 17.5817 0 22V37C0 41.4183 3.58172 45 8 45H40C44.4183 45 48 41.4183 48 37V22C48 17.5817 44.4183 14 40 14H31.6L30.5029 11.2572C30.1992 10.4979 29.4637 10 28.6459 10H18.3541Z"/>
</mask>
<path d="M16.4971 11.2572L19.2825 12.3714V12.3714L16.4971 11.2572ZM15.4 14V17H17.4311L18.1854 15.1142L15.4 14ZM31.6 14L28.8146 15.1142L29.5689 17H31.6V14ZM30.5029 11.2572L27.7175 12.3714V12.3714L30.5029 11.2572ZM19.2825 12.3714C19.1307 12.7511 18.763 13 18.3541 13V7C16.3095 7 14.471 8.24475 13.7117 10.143L19.2825 12.3714ZM18.1854 15.1142L19.2825 12.3714L13.7117 10.143L12.6146 12.8858L18.1854 15.1142ZM8 17H15.4V11H8V17ZM3 22C3 19.2386 5.23858 17 8 17V11C1.92487 11 -3 15.9249 -3 22H3ZM3 37V22H-3V37H3ZM8 42C5.23858 42 3 39.7614 3 37H-3C-3 43.0751 1.92487 48 8 48V42ZM40 42H8V48H40V42ZM45 37C45 39.7614 42.7614 42 40 42V48C46.0751 48 51 43.0751 51 37H45ZM45 22V37H51V22H45ZM40 17C42.7614 17 45 19.2386 45 22H51C51 15.9249 46.0751 11 40 11V17ZM31.6 17H40V11H31.6V17ZM27.7175 12.3714L28.8146 15.1142L34.3854 12.8858L33.2883 10.143L27.7175 12.3714ZM28.6459 13C28.237 13 27.8693 12.7511 27.7175 12.3714L33.2883 10.143C32.529 8.24475 30.6905 7 28.6459 7V13ZM18.3541 13H28.6459V7H18.3541V13Z" fill="#152C5B" mask="url(#path-1-inside-1)"/>
<path d="M41 21C33.4 21 35.6667 21 35.5 21" stroke="#152C5B" stroke-width="3" stroke-linecap="round"/>
<path d="M30.5 29C30.5 32.5899 27.5899 35.5 24 35.5C20.4101 35.5 17.5 32.5899 17.5 29C17.5 25.4101 20.4101 22.5 24 22.5C27.5899 22.5 30.5 25.4101 30.5 29Z" stroke="#FF4988" stroke-width="3"/>
</svg>
